<svg xmlns="http://www.w3.org/2000/svg" width="38" height="38" viewBox="0 0 38 38">
  <g id="Group_22056" data-name="Group 22056" transform="translate(-1520 -901.076)">
    <rect id="Rectangle_1" data-name="Rectangle 1" width="38" height="38" rx="19" transform="translate(1520 901.076)" fill="#3b52ff"/>
    <g id="Group_23" data-name="Group 23" transform="translate(1528.776 909.806)">
      <g id="Screen_Shot_2021-06-17_at_23" data-name="Screen Shot 2021-06-17 at 23" transform="translate(0)">
        <g id="_e9374dff" data-name="#e9374dff">
          <path id="Path_2" data-name="Path 2" d="M88.44,71.535a2.014,2.014,0,0,1,2.239.879q4.187,7.214,8.336,14.45a1.984,1.984,0,0,1-1.4,2.917,1.963,1.963,0,0,1-2.056-.936c-1.678-2.862-3.312-5.749-4.994-8.608a1.95,1.95,0,0,0-3.164.007c-1.746,2.9-3.369,5.875-5.114,8.773a2,2,0,0,1-3.574-.957c-.115-1.3,1.006-2.268,1.487-3.394,1.866-3.237,3.749-6.466,5.595-9.715C86.661,73.813,86.975,72.051,88.44,71.535Z" transform="translate(-78.705 -71.475)" fill="#fff"/>
          <path id="Path_3" data-name="Path 3" d="M207.906,275.667a2.045,2.045,0,0,1,2.248,1.047c.435.942,1.29,1.767,1.275,2.862a2.042,2.042,0,0,1-2.073,1.959c-.757,0-1.513.007-2.269,0a2.084,2.084,0,0,1-1.857-2.038c.016-.96.737-1.7,1.148-2.521A2.176,2.176,0,0,1,207.906,275.667Z" transform="translate(-198.059 -264.048)" fill="#fff"/>
        </g>
      </g>
    </g>
  </g>
</svg>
